<?xml version="1.0" encoding="UTF-8"?>
<svg width="132px" height="27px" viewBox="0 0 132 27" version="1.1" xmlns="http://www.w3.org/2000/svg" xmlns:xlink="http://www.w3.org/1999/xlink">
    <!-- Generator: sketchtool 51.2 (57519) - http://www.bohemiancoding.com/sketch -->
    <title>8FD384FC-E483-49D8-B36C-98769D0180F0</title>
    <desc>Created with sketchtool.</desc>
    <defs></defs>
    <g id="Design" stroke="none" stroke-width="1" fill="none" fill-rule="evenodd">
        <g id="102_Seller-Dashboard" transform="translate(-44.000000, -32.000000)" fill-rule="nonzero">
            <g id="logo" transform="translate(44.000000, 32.000000)">
                <path d="M1.8095,11.688875 C1.8095,12.172875 1.9305,12.530375 2.1725,12.761375 C2.4145,12.992375 2.6455,13.107875 2.8655,13.107875 C3.0855,13.107875 3.2835,13.085875 3.4595,13.041875 C5.1095,12.513875 6.5725,12.249875 7.8485,12.249875 C9.3445,12.249875 10.4555,12.563375 11.1815,13.190375 C11.9075,13.817375 12.2705,14.867875 12.2705,16.341875 L12.2705,16.605875 L8.2775,16.605875 C5.7915,16.605875 3.8775,17.111875 2.5355,18.123875 C1.3035,19.047875 0.6875,20.323875 0.6875,21.951875 C0.6875,23.447875 1.2155,24.657875 2.2715,25.581875 C3.2835,26.461875 4.5485,26.901875 6.0665,26.901875 C7.6065,26.901875 8.877,26.637875 9.878,26.109875 C10.879,25.581875 11.6765,25.009875 12.2705,24.393875 L12.2705,25.251875 C12.2705,25.669875 12.4135,26.021875 12.6995,26.307875 C12.9855,26.593875 13.3375,26.736875 13.7555,26.736875 C14.1735,26.736875 14.531,26.593875 14.828,26.307875 C15.125,26.021875 15.2735,25.669875 15.2735,25.251875 L15.2735,15.912875 C15.2735,14.130875 14.7235,12.645875 13.6235,11.457875 C12.3915,10.093875 10.6535,9.411875 8.4095,9.411875 C6.4295,9.411875 4.5155,9.807875 2.6675,10.599875 C2.0955,10.841875 1.8095,11.204875 1.8095,11.688875 Z M5.0105,19.608875 C5.8905,19.212875 7.1115,19.014875 8.6735,19.014875 L12.2705,19.014875 L12.2705,21.786875 C11.6985,22.424875 10.967,22.996875 10.076,23.502875 C9.19711315,24.0056903 8.20103815,24.2675157 7.1885,24.261875 C4.8565,24.261875 3.6905,23.381875 3.6905,21.621875 C3.6905,20.675875 4.1305,20.004875 5.0105,19.608875 Z M46.0625,23.172875 L42.2345,10.764875 C42.1296255,10.4201412 41.9153155,10.1189488 41.624,9.906875 C41.327,9.686875 40.9915,9.576875 40.6175,9.576875 C40.2435,9.576875 39.908,9.686875 39.611,9.906875 C39.314,10.126875 39.1105,10.412875 39.0005,10.764875 L35.1725,23.172875 L31.3115,10.467875 C31.1355,9.873875 30.6625,9.576875 29.8925,9.576875 C29.5174618,9.57724149 29.1592248,9.73247756 28.9025,10.005875 C28.6165,10.291875 28.4735,10.583375 28.4735,10.880375 C28.4735,11.177375 28.5065,11.424875 28.5725,11.622875 L33.2585,25.350875 C33.3905,25.724875 33.6325,26.049375 33.9845,26.324375 C34.3365,26.599375 34.7325,26.736875 35.1725,26.736875 C35.6125,26.736875 36.0085,26.599375 36.3605,26.324375 C36.7008999,26.0647142 36.9634481,25.7165524 37.1195,25.317875 L40.6175,14.394875 L44.1155,25.317875 C44.2715519,25.7165524 44.5341001,26.0647142 44.8745,26.324375 C45.2265,26.599375 45.6225,26.736875 46.0625,26.736875 C46.5025,26.736875 46.8985,26.599375 47.2505,26.324375 C47.6025,26.049375 47.8445,25.724875 47.9765,25.350875 L52.6625,11.622875 C52.7345065,11.3821567 52.7679207,11.1315502 52.7615,10.880375 C52.7615,10.583375 52.6185,10.291875 52.3325,10.005875 C52.0757752,9.73247756 51.7175382,9.57724149 51.3425,9.576875 C50.5725,9.576875 50.0995,9.873875 49.9235,10.467875 L46.0625,23.172875 Z M65.8295,11.688875 C65.8295,12.172875 65.9505,12.530375 66.1925,12.761375 C66.4345,12.992375 66.6655,13.107875 66.8855,13.107875 C67.1055,13.107875 67.3035,13.085875 67.4795,13.041875 C69.1295,12.513875 70.5925,12.249875 71.8685,12.249875 C73.3645,12.249875 74.4755,12.563375 75.2015,13.190375 C75.9275,13.817375 76.2905,14.867875 76.2905,16.341875 L76.2905,16.605875 L72.2975,16.605875 C69.8115,16.605875 67.8975,17.111875 66.5555,18.123875 C65.3235,19.047875 64.7075,20.323875 64.7075,21.951875 C64.7075,23.447875 65.2355,24.657875 66.2915,25.581875 C67.3035,26.461875 68.5685,26.901875 70.0865,26.901875 C71.6265,26.901875 72.897,26.637875 73.898,26.109875 C74.899,25.581875 75.6965,25.009875 76.2905,24.393875 L76.2905,25.251875 C76.2905,25.669875 76.4335,26.021875 76.7195,26.307875 C77.0055,26.593875 77.3575,26.736875 77.7755,26.736875 C78.1935,26.736875 78.551,26.593875 78.848,26.307875 C79.145,26.021875 79.2935,25.669875 79.2935,25.251875 L79.2935,15.912875 C79.2935,14.130875 78.7435,12.645875 77.6435,11.457875 C76.4115,10.093875 74.6735,9.411875 72.4295,9.411875 C70.4495,9.411875 68.5355,9.807875 66.6875,10.599875 C66.1155,10.841875 65.8295,11.204875 65.8295,11.688875 Z M69.0305,19.608875 C69.9105,19.212875 71.1315,19.014875 72.6935,19.014875 L76.2905,19.014875 L76.2905,21.786875 C75.7185,22.424875 74.987,22.996875 74.096,23.502875 C73.2171132,24.0056903 72.2210381,24.2675157 71.2085,24.261875 C68.8765,24.261875 67.7105,23.381875 67.7105,21.621875 C67.7105,20.675875 68.1505,20.004875 69.0305,19.608875 Z M97.2785,11.094875 C97.2785,10.676875 97.13,10.319375 96.833,10.022375 C96.5521822,9.7324024 96.1641219,9.57120809 95.7605,9.576875 C95.3425,9.576875 94.9905,9.725375 94.7045,10.022375 C94.4231529,10.3076779 94.2685265,10.6942439 94.2755,11.094875 L94.2755,25.251875 C94.2755,25.669875 94.4185,26.021875 94.7045,26.307875 C94.9905,26.593875 95.3425,26.736875 95.7605,26.736875 C96.177125,26.736875 96.536,26.593875 96.833,26.307875 C97.13,26.021875 97.2785,25.669875 97.2785,25.251875 L97.2785,15.219875 C97.838834,14.3731584 98.5763198,13.6581912 99.44,13.124375 C100.309,12.585375 101.292125,12.315875 102.3935,12.315875 L102.5585,12.315875 C102.9985,12.315875 103.3615,12.189375 103.6475,11.936375 C103.9335,11.683375 104.0765,11.342375 104.0765,10.913375 C104.0765,10.484375 103.939,10.126875 103.664,9.840875 C103.393684,9.55741614 103.016052,9.40156793 102.6245,9.411875 L102.4595,9.411875 C100.5455,9.411875 98.8185,10.445875 97.2785,12.513875 L97.2785,11.094875 Z M118.9925,19.212875 L130.1795,19.212875 C130.6415,19.212875 131.008625,19.069875 131.285,18.783875 C131.558625,18.497875 131.6975,18.145875 131.6975,17.727875 C131.6975,15.417875 131.025125,13.481875 129.6845,11.919875 C128.253125,10.247875 126.306125,9.411875 123.842125,9.411875 C121.246125,9.411875 119.244125,10.313875 117.8375,12.117875 C116.5835,13.723875 115.9565,15.736875 115.9565,18.156875 C115.9565,20.950875 116.703125,23.106875 118.2005,24.624875 C119.695125,26.142875 121.7975,26.901875 124.5035,26.901875 C125.800125,26.901875 126.9455,26.758875 127.9355,26.472875 C128.374125,26.340875 128.781125,26.186875 129.1565,26.010875 C129.529125,25.834875 129.952625,25.620375 130.427,25.367375 C130.898625,25.114375 131.1365,24.701875 131.1365,24.129875 C131.1365,23.821875 131.0045,23.546875 130.7405,23.304875 C130.4765,23.062875 130.200125,22.941875 129.9155,22.941875 C129.628125,22.941875 129.287125,23.040875 128.8925,23.238875 C127.7485,23.810875 126.3295,24.096875 124.6355,24.096875 C122.940125,24.096875 121.620125,23.656875 120.6755,22.776875 C119.7295,21.896875 119.1685,20.708875 118.9925,19.212875 Z M127.0115,13.074875 C128.0675,13.976875 128.638125,15.208875 128.7275,16.770875 L118.9925,16.770875 C119.0365,15.912875 119.2235,15.175875 119.5535,14.559875 C120.4555,12.821875 121.884125,11.952875 123.842125,11.952875 C125.0755,11.952875 126.130125,12.326875 127.0115,13.074875 Z" id="Shape" fill="#3D3D3F"></path>
                <path d="M40.6835,0.446875 C41.6803856,0.424331765 42.6113714,0.943184418 43.1165789,1.80286713 C43.6217865,2.66254984 43.622053,3.72835593 43.1172755,4.5882912 C42.6124979,5.44822647 41.6817717,5.96754466 40.684875,5.9455 C39.1904151,5.91245258 37.9960456,4.69168497 37.9956718,3.1968598 C37.995298,1.70203463 39.1890568,0.480669835 40.6835,0.446875" id="Shape" fill="#FF7F24"></path>
            </g>
        </g>
    </g>
</svg>