<?xml version="1.0" encoding="UTF-8"?>
<svg width="24px" height="24px" viewBox="0 0 24 24" version="1.1" xmlns="http://www.w3.org/2000/svg" xmlns:xlink="http://www.w3.org/1999/xlink">
    <!-- Generator: sketchtool 51.2 (57519) - http://www.bohemiancoding.com/sketch -->
    <title>83C9E3F5-A45C-4D2C-B07B-334CC1745247</title>
    <desc>Created with sketchtool.</desc>
    <defs>
        <path d="M7,18 C7,19.1 7.9,20 9,20 L15,20 C16.1,20 17,19.1 17,18 L17,8 L7,8 L7,18 Z M17,5 L15,5 L14.29,4.29 C14.11,4.11 13.85,4 13.59,4 L10.41,4 C10.15,4 9.89,4.11 9.71,4.29 L9,5 L7,5 C6.45,5 6,5.45 6,6 C6,6.55 6.45,7 7,7 L17,7 C17.55,7 18,6.55 18,6 C18,5.45 17.55,5 17,5 Z" id="path-1"></path>
    </defs>
    <g id="Symbols" stroke="none" stroke-width="1" fill="none" fill-rule="evenodd">
        <g id="Icon/Remove">
            <mask id="mask-2" fill="white">
                <use xlink:href="#path-1"></use>
            </mask>
            <use id="icon/content/delete_sweep_24px" fill="#9B9B9B" xlink:href="#path-1"></use>
        </g>
    </g>
</svg>